<svg width="169" height="43" viewBox="0 0 169 43" fill="none" xmlns="http://www.w3.org/2000/svg">
<g clip-path="url(#clip0_1_79)">
<path d="M16.8679 0.432663V9.25232L9.54077 1.66409L3.50861 7.52167L12.9276 17.2843H0V25.7046H13.47L3.60823 35.2675L9.44115 41.3248L16.8679 34.136V42.5562H25.2797V0.432663H16.8679Z" fill="#013DED"/>
<path d="M36.846 43H67.1174V32.9933H49.4526V26.1594H66.0106V16.8627H49.4526V10.0178H67.1174V0H36.846V43Z" fill="#0B1535"/>
<path d="M97.2671 25.5937H97.0568L87.5714 0H73.0057V43H84.0075V18.0831H84.1956L93.7807 43H100.532L110.117 18.0831H110.317V43H121.318V0H106.742L97.2671 25.5937Z" fill="#0B1535"/>
<path d="M155.74 43H169L154.999 0H139.182L125.181 43H138.441L140.665 34.4466H153.516L155.74 43ZM142.99 25.5382L146.974 10.2508H147.207L151.191 25.5382H142.99Z" fill="#0B1535"/>
</g>
<defs>
<clipPath id="clip0_1_79">
<rect width="169" height="43" fill="white"/>
</clipPath>
</defs>
</svg>
